<svg xmlns="http://www.w3.org/2000/svg" viewBox="0 0 512 512">
  <defs>
    <clipPath id="clip">
      <rect width="512" height="512" rx="104" />
    </clipPath>
    <linearGradient id="shine" x1="0" y1="0" x2="0" y2="1">
      <stop offset="0" stop-color="#ffffff" stop-opacity="0.22" />
      <stop offset="0.42" stop-color="#ffffff" stop-opacity="0" />
    </linearGradient>
  </defs>

  <g clip-path="url(#clip)">
    <rect width="512" height="256" fill="#de3831" />
    <rect y="256" width="512" height="256" fill="#002395" />
    <polygon points="0,10 0,502 176,256" fill="#ffb81c" />
    <polygon points="0,44 0,468 132,256" fill="#101010" />

    <g fill="none" stroke-linecap="round" stroke-linejoin="round">
      <path d="M0 256 H214" stroke="#ffffff" stroke-width="68" />
      <path d="M214 256 L512 90" stroke="#ffffff" stroke-width="68" />
      <path d="M214 256 L512 422" stroke="#ffffff" stroke-width="68" />
      <path d="M0 256 H214" stroke="#007a4d" stroke-width="44" />
      <path d="M214 256 L512 90" stroke="#007a4d" stroke-width="44" />
      <path d="M214 256 L512 422" stroke="#007a4d" stroke-width="44" />
    </g>

    <ellipse cx="310" cy="430" rx="58" ry="16" fill="#000000" fill-opacity="0.24" />
    <path
      d="M310 124c-60 0-108 48-108 108 0 76 108 208 108 208s108-132 108-208c0-60-48-108-108-108z"
      fill="#ffffff"
    />
    <circle cx="310" cy="236" r="50" fill="#123765" />
    <path d="M258 260l24-30 25 18 28-24 27 36z" fill="#ffcf45" />
    <rect x="258" y="264" width="108" height="7" rx="3.5" fill="#f5f2e9" />
    <circle cx="343" cy="222" r="10" fill="#ffcf45" />

    <rect width="512" height="220" fill="url(#shine)" />
  </g>

  <rect
    x="6"
    y="6"
    width="500"
    height="500"
    rx="98"
    fill="none"
    stroke="#000000"
    stroke-opacity="0.16"
    stroke-width="12"
  />
</svg>
